<svg width="32" height="33" viewBox="0 0 32 33" fill="none" xmlns="http://www.w3.org/2000/svg">
<path d="M21.2165 3.16589H2.66577V29.8326H21.2165V3.16589Z" fill="#FCBA59"/>
<path d="M11.939 27.5151C13.2196 27.5151 14.2578 26.4769 14.2578 25.1963C14.2578 23.9156 13.2196 22.8774 11.939 22.8774C10.6583 22.8774 9.62012 23.9156 9.62012 25.1963C9.62012 26.4769 10.6583 27.5151 11.939 27.5151Z" fill="#BE7F21"/>
<path d="M28.1734 14.1798C28.1734 11.3316 26.9652 8.76551 25.0331 6.96631L17.8196 14.1798L25.0331 21.3934C26.9652 19.5942 28.1734 17.0281 28.1734 14.1798Z" fill="#FE7DEB"/>
<path d="M24.6953 14.7569C24.6953 12.3798 23.2645 10.3368 21.217 9.44226L16.5793 14.7569L21.217 20.0718C23.2645 19.1771 24.6953 17.1342 24.6953 14.7569Z" fill="#6457DC"/>
</svg>
