<svg width="32" height="33" viewBox="0 0 32 33" fill="none" xmlns="http://www.w3.org/2000/svg">
<path d="M10.2497 16.6463C12.8677 16.6463 14.9899 14.524 14.9899 11.9061C14.9899 9.28815 12.8677 7.16589 10.2497 7.16589C7.63178 7.16589 5.50952 9.28815 5.50952 11.9061C5.50952 14.524 7.63178 16.6463 10.2497 16.6463Z" fill="#FCBA59"/>
<path d="M22.5766 16.6463C25.1946 16.6463 27.3168 14.524 27.3168 11.9061C27.3168 9.28815 25.1946 7.16589 22.5766 7.16589C19.9587 7.16589 17.8364 9.28815 17.8364 11.9061C17.8364 14.524 19.9587 16.6463 22.5766 16.6463Z" fill="#8D81F8"/>
<path d="M2.66577 26.1228C2.66577 21.9341 6.06138 18.5385 10.2501 18.5385C14.4388 18.5385 17.8344 21.9341 17.8344 26.1228V27.0709H2.66577V26.1228Z" fill="#FFA835"/>
<path d="M14.9905 26.1228C14.9905 21.9341 18.386 18.5385 22.5747 18.5385C26.7635 18.5385 30.1591 21.9341 30.1591 26.1228V27.0709H14.9905V26.1228Z" fill="#6457DC"/>
<path d="M14.9905 27.0724H17.8345V26.1243C17.8345 24.4741 17.3075 22.9468 16.4125 21.702C15.5175 22.9468 14.9905 24.4741 14.9905 26.1243V27.0724Z" fill="#021639"/>
</svg>
