<svg width="32" height="33" viewBox="0 0 32 33" fill="none" xmlns="http://www.w3.org/2000/svg">
<path d="M11.7957 2.85693C13.5466 2.85693 15.2805 3.20182 16.8981 3.87188C18.5158 4.54194 19.9856 5.52406 21.2237 6.76218C22.4619 8.00029 23.444 9.47015 24.1141 11.0878C24.7841 12.7055 25.129 14.4393 25.129 16.1903C25.129 17.9413 24.7841 19.6751 24.1141 21.2927C23.4439 22.9104 22.4619 24.3803 21.2237 25.6183C19.9856 26.8565 18.5158 27.8386 16.8981 28.5087C15.2805 29.1787 13.5466 29.5236 11.7957 29.5236V16.1903V2.85693Z" fill="#FCBA59"/>
<path d="M6.66577 6.96362C7.87797 6.96362 9.0783 7.20238 10.1982 7.66627C11.3182 8.13017 12.3358 8.8101 13.1929 9.66725C14.0501 10.5244 14.73 11.542 15.1939 12.6619C15.6577 13.7819 15.8965 14.9822 15.8965 16.1943C15.8965 17.4067 15.6577 18.6069 15.1939 19.7269C14.73 20.8468 14.0501 21.8644 13.1929 22.7216C12.3358 23.5787 11.3182 24.2586 10.1982 24.7225C9.0783 25.1865 7.87797 25.4252 6.66577 25.4252V16.1943V6.96362Z" fill="#6457DC"/>
<path d="M11.7957 23.8622V8.51172C12.2972 8.84684 12.766 9.23115 13.1946 9.65977C14.0518 10.5169 14.7317 11.5345 15.1956 12.6544C15.6594 13.7744 15.8982 14.9746 15.8982 16.187C15.8982 17.3991 15.6594 18.5994 15.1956 19.7194C14.7317 20.8393 14.0518 21.8569 13.1946 22.7141C12.766 23.1426 12.2972 23.527 11.7957 23.8622Z" fill="#021639"/>
</svg>
