<svg width="45" height="46" viewBox="0 0 45 46" fill="none" xmlns="http://www.w3.org/2000/svg">
<path fill-rule="evenodd" clip-rule="evenodd" d="M10.4827 38.4451C11.6278 38.7621 12.4553 37.652 12.4553 36.5166V20.678C12.4553 18.6546 14.7687 17.4004 16.5962 18.4328L27.0138 24.3182C27.4706 24.5764 28.0489 24.2629 28.0489 23.757V16.9522C28.0489 16.4875 27.7895 16.0579 27.3675 15.8242L13.151 7.94758C10.8662 6.68194 8 8.25093 8 10.7676V35.3068C8 36.8667 9.10128 38.0627 10.4827 38.4451ZM35.2965 20.2172C37.5678 21.4752 37.5678 24.5991 35.2965 25.8572L31.7336 27.8309C31.6194 27.8942 31.4761 27.8158 31.4761 27.6899V18.3845C31.4761 18.2586 31.6194 18.1802 31.7336 18.2434L35.2965 20.2172ZM28.5983 29.0065C28.8233 29.1336 28.8219 29.444 28.5958 29.5692L16.3985 36.3269C16.17 36.4536 15.8834 36.2965 15.8834 36.045V22.9689C15.8834 22.4631 16.4617 22.1495 16.9186 22.4078L28.5983 29.0065Z" fill="url(#paint0_linear_3_91)"/>
<defs>
<linearGradient id="paint0_linear_3_91" x1="35.8604" y1="5.00375" x2="6.6628" y2="34.3892" gradientUnits="userSpaceOnUse">
<stop stop-color="#FDA195"/>
<stop offset="0.46657" stop-color="#FE7DEC"/>
<stop offset="1" stop-color="#5754DA"/>
</linearGradient>
</defs>
</svg>
